<?xml version="1.0" encoding="UTF-8"?>
<svg id="Layer_1" xmlns="http://www.w3.org/2000/svg" version="1.1" viewBox="0 0 379 109">
  <!-- Generator: Adobe Illustrator 29.3.0, SVG Export Plug-In . SVG Version: 2.1.0 Build 146)  -->
  <defs>
    <style>
      .st0 {
        fill: #f4f4f9;
      }
    </style>
  </defs>
  <g id="PRINT">
    <path class="st0" d="M99.8,58.9c2.1,0,4.1-.5,6-1.6s3.4-2.3,4.4-3.9h.3c-.3,2.7-.5,4.2-.5,4.6h14.4c.2-2.4.6-4.7,1-7l4.9-28.7h-14.9l-3.3,18.9c-.3,1.7-.9,3-1.6,4-.8,1-1.7,1.4-2.7,1.4-2.1,0-3.1-1-3.1-3s0-1.5.2-2.3l3.3-18.9h-15l-3.7,21.4c-.3,1.5-.4,3-.4,4.5,0,3,.9,5.5,2.6,7.5,1.8,2,4.5,3,8.1,3h0Z"/>
    <path class="st0" d="M137.7,54.9c3.5,2.8,7.9,4.2,13.2,4.2s13-2.2,17.2-6.5l-10.1-7c-1.6,1.6-3.6,2.4-6.1,2.4s-2.7-.3-3.9-.9c-1.2-.6-1.8-1.6-1.8-2.9s0-.3,0-.5h23.9c.6-2,.9-4.2.9-6.5,0-4.9-1.5-8.8-4.5-11.7s-7-4.3-12.1-4.3-11.7,2.1-15.8,6.2-6.2,9.3-6.2,15.4,1.7,9.1,5.2,12h.1ZM149.1,32.6c1.2-1,2.6-1.5,4.2-1.5s2.6.3,3.4,1c.8.7,1.2,1.6,1.2,2.7s0,.6,0,.8h-11c.3-1.1,1-2.1,2.2-3.1h0Z"/>
    <path class="st0" d="M185.3,44.8c2.4.7,3.7,1.5,3.7,2.4s-1,1.6-2.9,1.6c-3.1,0-5.9-1.2-8.2-3.5l-7.6,9.2c3.8,3.3,9,4.9,15.4,4.9s5.4-.4,7.8-1.2c2.4-.8,4.5-2.2,6.3-4.3s2.7-4.6,2.7-7.6-.9-5.3-2.8-7c-1.9-1.7-4.6-3-8.2-3.9-1.2-.3-2-.6-2.5-.8-.4-.2-.7-.6-.7-1,0-1,1-1.6,3-1.6s2.6.3,3.9.9,2.4,1.3,3.1,2.1l7.7-9c-1.6-1.5-3.6-2.6-6.2-3.4s-5.2-1.2-8-1.2c-4.4,0-8.3,1.1-11.6,3.5-3.3,2.3-4.9,5.6-4.9,9.8s.8,4.9,2.5,6.5,4.2,2.8,7.5,3.8h0v-.2Z"/>
    <path class="st0" d="M211.3,33.3l-2.3,13.1c-.2,1.2-.3,2.4-.3,3.5,0,6.1,4,9.2,11.9,9.2s6-.4,7.3-1.2l1.8-10.5c-.9.3-1.9.4-2.9.4s-1.7-.2-2.2-.6c-.5-.4-.7-1-.7-2s0-1.1.1-1.8l1.8-10h6.5l1.9-10.9h-6.7l1.4-8.1h-14.5l-1.4,8.1h-4.9l-1.9,10.9h5.2-.1Z"/>
    <polygon class="st0" points="248.5 76.2 252.2 52.4 252.4 52.4 261.8 76.2 277.3 76.2 285.7 28.2 270.6 28.2 266.8 53.2 266.5 53.2 257 28.2 241.8 28.2 233.5 76.2 248.5 76.2"/>
    <path class="st0" d="M288.9,74.8c2.1,1.6,4.5,2.4,7.3,2.4,4.1,0,7.4-1.4,9.9-4.2h.1c0,1.2-.1,2.3-.1,3.3h12.8c0-1.8.2-3.6.5-5.5l2.3-13.1c.4-2.1.5-4,.5-5.6,0-4-1.4-7.1-4.1-9.3s-6.7-3.3-12-3.3-5.7.6-8.7,1.7-5.5,2.7-7.6,4.7l6.5,7.6c2.4-2.1,5-3.1,7.8-3.1s2.3.2,3.1.7c.8.5,1.1,1.2,1.1,2.1s0,.5,0,.8c-15,0-22.5,4.6-22.5,13.9s1,5.5,3.1,7.1h0v-.2h0ZM307,61.6h.9l-.2,1.2c-.3,1.5-.9,2.7-2,3.7-1,.9-2.3,1.4-3.8,1.4s-3.1-.8-3.1-2.4c0-2.5,2.7-3.8,8.1-3.8h.1Z"/>
    <polygon class="st0" points="352.9 40.5 344 60.3 343.8 60.3 342.4 40.5 326.7 40.5 332.6 76.2 348.9 76.2 369.5 40.5 352.9 40.5"/>
    <circle class="st0" cx="36.6" cy="42.1" r="2.8"/>
    <circle class="st0" cx="31.7" cy="45.8" r="2.6"/>
    <ellipse class="st0" cx="37.4" cy="48.4" rx="2.5" ry="2.6"/>
    <circle class="st0" cx="61.8" cy="39" r="2.8"/>
    <circle class="st0" cx="67.4" cy="41.4" r="2.6"/>
    <ellipse class="st0" cx="62.6" cy="45.3" rx="2.5" ry="2.6"/>
    <path class="st0" d="M61.7,59.7c-2.4,2.1-5.7,3.5-9.9,4.3-2.3.4-4.4.6-6.3.5l-1.2-1.5,4.8-1.7c3.5-1.2,6.6-3.3,9.1-6.2h0l3.4,4.5h0Z"/>
    <path class="st0" d="M225.8,81.5h-.2l2-11.7c.6-3.3-1.9-6.3-5.3-6.3l-146.7.7v-.4c2.6-1.8,4.9-4.9,7.1-9.4s3.3-9.4,3.3-14.8-.3-5.7-1-8.2c.3-2.6.6-4.4.6-4.5.3-3.6-3.4-10.3-5.4-10.6-.6,0-1.3.3-1.5,1.2,0,.4-.2,1-.4,1.7-.5-.5-1.1-1-1.6-1.5-6.2-5.4-14.6-8.1-25-8.1s-22.3,4.1-30.1,12.2c-2.5,2.6-4.6,5.3-6.3,8.2-.6-1-1.1-1.9-1.3-2.4-.4-.9-1.2-1-1.8-.7-1.9.9-3.5,8.4-2.2,11.7,0,0,.4.9,1,2.3-.8,3.5-1.2,7.1-1.2,10.9,0,9.2,3.1,16.5,9.3,21.8,3.1,2.7,6.7,4.7,10.9,6,6.7,2.1,13.8,2.1,20.6.3l7.1-1.8,7.7,3.4h149.3l-1.5,8.9c-.8,4.4,2.6,8.5,7,8.5l121,.6,7.4-18.7-122.8.7ZM77.1,45.4c.8-1.9,3-7.5.8-15.8.3-1.4,2-8.1,2.6-11,1.2,1.4,3.5,5.5,3.3,8-.5,5.2-2.7,19.8-3.7,21.1-.5,0-1.8-.9-3.1-2.4h0ZM21.4,56.9c-1.5-1-7.7-14.2-9.7-19.1-1-2.4,0-7,.9-8.7,1.5,2.6,5,8.5,5.7,9.7.2,8.6,3.8,13.4,5.2,14.9-.7,1.6-1.7,3.2-2.1,3.2ZM47.5,65.5c-8.8,0-14.5-3.2-17.3-9.6,2,.6,4.1.8,5.9.7,4,0,19.8-2.4,24.7-3,2-.2,3.9-.6,5.6-1.1-1.9,8.7-8.6,13-18.9,13ZM71.6,48.4c-2.2,1.6-6.1,2.9-11,3.5-4.9.6-20.6,3-24.7,3s-9.8-1-12.4-5.1c-2.7-4.1-3.2-7.5-3-11.2,0-.7,0-8.7,8.1-12.3,8.4-3.8,27-5.2,32.7-4.9,5.6.3,10.3,2.5,12.5,6.1,2.2,3.5,3.1,6.5,2.8,11.3-.3,4.8-2.8,8-5,9.6Z"/>
  </g>
</svg>