<?xml version="1.0" encoding="UTF-8"?>
<svg xmlns="http://www.w3.org/2000/svg" version="1.1" viewBox="0 0 378.95 109">
  <defs>
    <style>
      .cls-1, .cls-2 {
        fill: #fff;
      }

      .cls-2 {
        stroke: #231f20;
        stroke-miterlimit: 10;
        stroke-width: .14px;
      }
    </style>
  </defs>
  <!-- Generator: Adobe Illustrator 28.7.6, SVG Export Plug-In . SVG Version: 1.2.0 Build 188)  -->
  <g>
    <g id="PRINT">
      <path d="M225.65,81.54l2.02-11.7c.57-3.32-1.94-6.35-5.26-6.34l-146.73.67.1-.4c2.47-1.78,4.8-4.91,6.97-9.38,2.18-4.46,3.27-9.41,3.27-14.84,0-2.94-.32-5.69-.96-8.24.34-2.59.55-4.43.56-4.49.35-3.59-3.4-10.28-5.42-10.57-.63-.09-1.34.26-1.52,1.23-.07.38-.2.98-.36,1.68-.52-.53-1.05-1.05-1.62-1.54-6.22-5.42-14.56-8.14-25.03-8.14-12.23,0-22.28,4.07-30.15,12.21-2.48,2.56-4.57,5.31-6.26,8.24-.59-1.04-1.08-1.92-1.34-2.42-.45-.88-1.23-1-1.8-.73-1.85.88-3.54,8.38-2.18,11.71.02.04.4.94,1.01,2.33-.82,3.45-1.23,7.09-1.23,10.93,0,9.2,3.1,16.46,9.31,21.78,3.11,2.66,6.74,4.66,10.89,5.99,6.66,2.13,13.81,2.05,20.59.35l7.1-1.78,7.66,3.42h149.32l-1.53,8.92c-.76,4.42,2.59,8.46,7,8.46l120.97.58,7.42-18.65-122.81.69ZM47.47,65.46c-8.75,0-14.51-3.23-17.28-9.64,2.03.57,4.15.75,5.94.73,4.04-.05,19.84-2.44,24.69-3.04,2.04-.25,3.91-.62,5.57-1.09-1.86,8.71-8.64,13.03-18.92,13.03Z"/>
      <path d="M99.82,58.88c2.09,0,4.08-.52,5.97-1.56,1.89-1.04,3.37-2.33,4.44-3.87h.27c-.31,2.67-.47,4.21-.47,4.61h14.41c.22-2.4.55-4.73,1-6.99l4.93-28.7h-14.94l-3.34,18.86c-.31,1.72-.86,3.05-1.63,4-.78.95-1.68,1.42-2.7,1.42-2.05,0-3.07-1.02-3.07-3.05,0-.72.07-1.49.2-2.31l3.27-18.93h-15.01l-3.66,21.44c-.27,1.45-.4,2.96-.4,4.55,0,3.03.88,5.54,2.63,7.53,1.76,1.99,4.46,2.98,8.11,2.98Z"/>
      <path d="M137.68,54.91c3.49,2.83,7.88,4.24,13.18,4.24,7.3,0,13.03-2.15,17.21-6.45l-10.07-7.05c-1.6,1.58-3.65,2.37-6.14,2.37-1.38,0-2.68-.31-3.9-.92-1.23-.61-1.83-1.57-1.83-2.88,0-.18.02-.34.07-.47h23.88c.62-2.03.93-4.2.93-6.51,0-4.93-1.49-8.82-4.47-11.67-2.98-2.85-7.03-4.27-12.14-4.27-6.4,0-11.66,2.07-15.78,6.21-4.11,4.14-6.17,9.28-6.17,15.43,0,5.15,1.74,9.15,5.23,11.97ZM149.15,32.59c1.18-.97,2.59-1.46,4.23-1.46,1.47,0,2.61.34,3.44,1.02.82.68,1.23,1.58,1.23,2.71,0,.36-.02.63-.07.81h-11.01c.27-1.08.99-2.11,2.17-3.09Z"/>
      <path d="M185.34,44.77c2.44.68,3.67,1.47,3.67,2.37,0,1.04-.96,1.56-2.87,1.56-3.15,0-5.89-1.18-8.2-3.53l-7.61,9.23c3.82,3.26,8.96,4.88,15.41,4.88,2.75,0,5.35-.39,7.77-1.19,2.43-.79,4.54-2.21,6.34-4.27,1.8-2.06,2.7-4.6,2.7-7.63s-.94-5.33-2.83-7.02c-1.89-1.7-4.64-3-8.24-3.9-1.2-.31-2.02-.6-2.46-.85-.45-.25-.67-.6-.67-1.05,0-1.04,1-1.56,3-1.56,1.29,0,2.6.28,3.94.85,1.34.57,2.38,1.26,3.13,2.07l7.67-8.96c-1.55-1.45-3.61-2.57-6.17-3.36-2.56-.79-5.24-1.19-8.04-1.19-4.45,0-8.32,1.15-11.61,3.46-3.29,2.31-4.93,5.56-4.93,9.77,0,2.76.83,4.92,2.5,6.48,1.67,1.56,4.17,2.84,7.51,3.83Z"/>
      <path d="M211.29,33.3l-2.33,13.09c-.23,1.22-.34,2.37-.34,3.46,0,6.11,3.96,9.16,11.87,9.16,3.51,0,5.96-.41,7.34-1.22l1.8-10.45c-.89.27-1.87.41-2.94.41-.98,0-1.71-.19-2.2-.57-.49-.38-.74-1.05-.74-2,0-.5.05-1.11.14-1.83l1.8-10.04h6.54l1.87-10.92h-6.74l1.4-8.07h-14.47l-1.4,8.07h-4.94l-1.87,10.92h5.21Z"/>
      <polygon points="248.51 76.22 252.18 52.41 252.45 52.41 261.78 76.22 277.33 76.22 285.66 28.19 270.65 28.19 266.79 53.22 266.52 53.22 256.98 28.19 241.84 28.19 233.5 76.22 248.51 76.22"/>
      <path d="M288.94,74.8c2.08,1.58,4.53,2.37,7.33,2.37,4.14,0,7.43-1.4,9.87-4.21h.13c-.09,1.18-.13,2.26-.13,3.26h12.81c0-1.81.16-3.64.47-5.5l2.27-13.09c.35-2.08.53-3.96.53-5.63,0-3.98-1.37-7.06-4.1-9.26-2.74-2.19-6.73-3.29-11.98-3.29-2.8,0-5.71.57-8.71,1.7-3,1.13-5.55,2.69-7.64,4.68l6.54,7.6c2.4-2.08,5-3.12,7.8-3.12,1.29,0,2.31.24,3.07.71.76.47,1.13,1.17,1.13,2.07,0,.27-.02.52-.07.75-14.99,0-22.48,4.64-22.48,13.91,0,3.12,1.04,5.47,3.14,7.06ZM307.02,61.57h.86l-.2,1.15c-.27,1.49-.92,2.71-1.97,3.66-1.05.95-2.3,1.43-3.77,1.43-2.05,0-3.07-.81-3.07-2.44,0-2.53,2.71-3.8,8.14-3.8Z"/>
      <polygon points="352.91 40.54 344.03 60.28 343.77 60.28 342.43 40.54 326.69 40.54 332.63 76.22 348.9 76.22 369.45 40.54 352.91 40.54"/>
      <path class="cls-2" d="M20.48,38.68s-.34-8.64,8.12-12.41,27.05-5.17,32.7-4.85c5.65.32,10.33,2.53,12.5,6.07,2.17,3.54,3.08,6.53,2.78,11.32-.3,4.79-2.85,7.96-4.96,9.61s-6.13,2.91-10.99,3.51-20.64,2.98-24.69,3.04c-4.04.05-9.77-.95-12.44-5.06-2.67-4.11-3.19-7.47-3.02-11.23Z"/>
      <ellipse cx="36.61" cy="42.12" rx="2.77" ry="2.82"/>
      <ellipse cx="31.71" cy="45.83" rx="2.57" ry="2.61"/>
      <ellipse cx="37.36" cy="48.4" rx="2.53" ry="2.58"/>
      <ellipse cx="61.81" cy="39.02" rx="2.77" ry="2.82"/>
      <ellipse cx="67.43" cy="41.43" rx="2.57" ry="2.61"/>
      <ellipse cx="62.56" cy="45.3" rx="2.53" ry="2.58"/>
      <path d="M61.67,59.7c-2.39,2.08-5.7,3.52-9.92,4.34-2.27.44-4.36.62-6.27.48l-1.15-1.54,4.81-1.67c3.5-1.22,6.63-3.34,9.08-6.15h0s3.44,4.54,3.44,4.54Z"/>
      <path class="cls-1" d="M12.61,29.1c-.79,1.69-1.87,6.3-.9,8.67,1.99,4.88,8.2,18.12,9.66,19.13.39-.07,1.41-1.57,2.15-3.23-1.36-1.49-5.03-6.29-5.25-14.85-.74-1.24-4.25-7.14-5.66-9.72Z"/>
      <path class="cls-1" d="M76.96,45.35c1.27,1.47,2.64,2.49,3.05,2.4,1.04-1.34,3.22-15.85,3.73-21.1.25-2.55-2.09-6.64-3.33-8.03-.61,2.9-2.29,9.56-2.64,10.97,2.23,8.26.08,13.93-.8,15.76Z"/>
    </g>
  </g>
</svg>