<?xml version="1.0" encoding="UTF-8"?>
<svg xmlns="http://www.w3.org/2000/svg" version="1.1" viewBox="0 0 324.93 194.32">
  <defs>
    <style>
      .cls-1 {
        fill: #fff;
      }

      .cls-2 {
        fill: #3b3b3c;
      }

      .cls-3 {
        fill: #333132;
      }

      .cls-4 {
        fill: #636466;
      }

      .cls-5 {
        fill: #414042;
      }
    </style>
  </defs>
  <!-- Generator: Adobe Illustrator 28.7.6, SVG Export Plug-In . SVG Version: 1.2.0 Build 188)  -->
  <g>
    <g id="Layer_2">
      <g>
        <path class="cls-2" d="M305.47,104.61c0,14.49-4.29,20.5-13.62,20.5s-15.96-5.84-15.96-20.33,7.56-26.24,16.89-26.24,12.69,11.57,12.69,26.07Z"/>
        <path d="M55.45,164.85c0,14.49-4.29,20.5-13.62,20.5s-15.96-5.84-15.96-20.33,7.56-26.24,16.89-26.24,12.69,11.57,12.69,26.07Z"/>
        <path class="cls-2" d="M260.4,163.28c0,13.62-6.47,22.22-17.64,22.22s-17.8-8.44-17.8-22.06,9.06-24.66,20.24-24.66,15.21,10.88,15.21,24.5Z"/>
        <path d="M9.28,134.36l-.11-.33q-.11-.33,5.04-3.93L122.62,54.34h0c.22-.09,3.03.06,87.89,4.62q87.71,4.72,87.84,4.79l.49.29-.38.42q-57.99,65.18-58.2,65.19l-230.99,4.7Z"/>
        <path class="cls-4" d="M123.02,55.2c-4.14,2.9-99.87,69.77-111.9,78.2l228.92-4.66c2.84-3.19,50.95-57.26,57.09-64.17-13.56-.75-168.14-9.07-174.11-9.37Z"/>
        <path d="M241.25,128.61c-1.8-2.44-3.6-4.89-5.4-7.33-4.3-5.84-8.59-11.67-12.89-17.51-5.22-7.09-10.44-14.18-15.66-21.28-4.51-6.13-9.03-12.26-13.54-18.4-2.18-2.97-4.28-6.03-6.56-8.92-.03-.04-.06-.09-.1-.13-.02-.03-.05-.06-.08-.09-.23-.39-.66-.63-1.23-.45l-9.23,3.07c-7.39,2.46-14.77,4.91-22.16,7.37-8.94,2.97-17.88,5.94-26.82,8.91-7.73,2.57-15.46,5.14-23.2,7.71-3.76,1.25-7.57,2.41-11.3,3.76-.05.02-.11.04-.16.05-.65.22-.91.78-.81,1.43,1.13,7.48,2.27,14.96,3.4,22.43,1.81,11.9,3.61,23.81,5.42,35.71.41,2.71.82,5.43,1.23,8.14.1.66.87.91,1.43.81,4.57-.79,9.15-1.58,13.72-2.36,10.9-1.88,21.79-3.76,32.69-5.63,13.17-2.27,26.33-4.54,39.5-6.81,11.38-1.96,22.77-3.92,34.15-5.88,3.77-.65,7.54-1.3,11.32-1.95,1.77-.3,3.59-.51,5.33-.92.08-.02.15-.03.23-.04.69-.12,1.11-1.13.69-1.71Z"/>
        <path class="cls-5" d="M226.22,130.44c-10.9,1.88-21.79,3.76-32.69,5.63-13.17,2.27-26.33,4.54-39.5,6.81-11.38,1.96-22.77,3.92-34.15,5.88-3.77.65-7.54,1.3-11.32,1.95-1.39.24-2.89.37-4.3.67-1.08-7.11-2.16-14.22-3.24-21.33-1.81-11.9-3.61-23.81-5.42-35.71-.36-2.35-.71-4.69-1.07-7.04,2.75-.91,5.5-1.83,8.25-2.74,7.39-2.46,14.77-4.91,22.16-7.37,8.94-2.97,17.88-5.94,26.82-8.91,7.73-2.57,15.46-5.14,23.2-7.71,3.57-1.19,7.18-2.3,10.73-3.56,1.61,2.18,3.21,4.36,4.82,6.55,4.3,5.84,8.59,11.67,12.89,17.51,5.22,7.09,10.44,14.18,15.66,21.28,4.51,6.13,9.03,12.26,13.54,18.4,1.48,2.01,2.96,4.03,4.44,6.04.36.49.72,1.07,1.1,1.62-3.97.68-7.94,1.37-11.91,2.05Z"/>
        <polygon points="32.01 126.64 99.92 76.49 193.49 64.9 213.98 125.48 32.01 126.64"/>
        <polygon class="cls-4" points="100.27 77.38 34.85 125.69 212.69 124.56 192.86 65.92 100.27 77.38"/>
        <path d="M246.62,179.38H12.37c-1.96,0-3.55-1.59-3.55-3.55v-40.16c0-1.06-.01-1.65.39-2.06.4-.4,1.02-.45,2.25-.45l235.15-1.76v47.98Z"/>
        <path class="cls-2" d="M245.69,132.34l-234.22,1.75c-.57,0-1.42,0-1.59.17-.14.14-.13.69-.13,1.4v.52s0,39.65,0,39.65c0,1.44,1.17,2.62,2.62,2.62h233.32v-46.11Z"/>
        <path d="M246.09,135.42l-7.87-12.27.24-.26,53.57-58.18,19.81-3.29c.24-.09.51-.02.68.18.2.22.21.55.04.79l-66.47,73.05Z"/>
        <g>
          <path class="cls-1" d="M85.02,158.82c.97,0,1.89-.24,2.77-.71.88-.47,1.56-1.06,2.06-1.76h.12c-.14,1.22-.22,1.92-.22,2.1h6.68c.1-1.09.26-2.15.46-3.18l2.29-13.08h-6.93l-1.55,8.6c-.14.78-.4,1.39-.76,1.82-.36.43-.78.65-1.25.65-.95,0-1.42-.46-1.42-1.39,0-.33.03-.68.09-1.05l1.52-8.63h-6.96l-1.7,9.77c-.13.66-.19,1.35-.19,2.07,0,1.38.41,2.53,1.22,3.43.82.91,2.07,1.36,3.76,1.36Z"/>
          <path class="cls-1" d="M102.57,157.01c1.62,1.29,3.65,1.93,6.11,1.93,3.38,0,6.04-.98,7.98-2.94l-4.67-3.22c-.74.72-1.69,1.08-2.85,1.08-.64,0-1.24-.14-1.81-.42-.57-.28-.85-.72-.85-1.31,0-.08.01-.15.03-.22h11.07c.29-.93.43-1.92.43-2.97,0-2.25-.69-4.02-2.07-5.32-1.38-1.3-3.26-1.95-5.63-1.95-2.97,0-5.41.94-7.31,2.83-1.91,1.89-2.86,4.23-2.86,7.04,0,2.35.81,4.17,2.43,5.46ZM107.89,146.84c.55-.44,1.2-.67,1.96-.67.68,0,1.21.15,1.59.46.38.31.57.72.57,1.24,0,.16-.01.29-.03.37h-5.1c.13-.49.46-.96,1.01-1.41Z"/>
          <path class="cls-1" d="M124.66,152.39c1.13.31,1.7.67,1.7,1.08,0,.47-.45.71-1.33.71-1.46,0-2.73-.54-3.8-1.61l-3.53,4.21c1.77,1.48,4.16,2.23,7.14,2.23,1.28,0,2.48-.18,3.6-.54,1.12-.36,2.1-1.01,2.94-1.95.84-.94,1.25-2.1,1.25-3.48s-.44-2.43-1.31-3.2c-.88-.77-2.15-1.37-3.82-1.78-.56-.14-.94-.27-1.14-.39-.21-.11-.31-.27-.31-.48,0-.47.46-.71,1.39-.71.6,0,1.21.13,1.82.39.62.26,1.1.57,1.45.94l3.56-4.08c-.72-.66-1.67-1.17-2.86-1.53-1.19-.36-2.43-.54-3.73-.54-2.06,0-3.86.53-5.38,1.58-1.53,1.05-2.29,2.54-2.29,4.45,0,1.26.39,2.24,1.16,2.95.78.71,1.93,1.29,3.48,1.75Z"/>
          <path class="cls-1" d="M136.69,147.16l-1.08,5.97c-.11.56-.16,1.08-.16,1.58,0,2.78,1.83,4.18,5.5,4.18,1.63,0,2.76-.18,3.4-.56l.84-4.76c-.41.12-.87.18-1.36.18-.45,0-.79-.09-1.02-.26-.23-.17-.34-.48-.34-.91,0-.23.02-.51.06-.84l.84-4.58h3.03l.87-4.98h-3.12l.65-3.68h-6.71l-.65,3.68h-2.29l-.87,4.98h2.41Z"/>
          <polygon class="cls-1" points="153.95 166.72 155.65 155.87 155.77 155.87 160.1 166.72 167.31 166.72 171.17 144.83 164.21 144.83 162.42 156.24 162.3 156.24 157.87 144.83 150.85 144.83 146.99 166.72 153.95 166.72"/>
          <path class="cls-1" d="M172.69,166.08c.97.72,2.1,1.08,3.4,1.08,1.92,0,3.44-.64,4.58-1.92h.06c-.04.54-.06,1.03-.06,1.48h5.94c0-.82.07-1.66.22-2.51l1.05-5.97c.16-.95.25-1.8.25-2.57,0-1.81-.63-3.22-1.9-4.22-1.27-1-3.12-1.5-5.55-1.5-1.3,0-2.65.26-4.04.77-1.39.52-2.57,1.23-3.54,2.13l3.03,3.46c1.11-.95,2.32-1.42,3.62-1.42.6,0,1.07.11,1.42.32.35.22.53.53.53.94,0,.12-.01.24-.03.34-6.95,0-10.42,2.11-10.42,6.34,0,1.42.48,2.5,1.45,3.22ZM181.07,160.04h.4l-.09.52c-.12.68-.43,1.24-.91,1.67-.49.43-1.07.65-1.75.65-.95,0-1.42-.37-1.42-1.11,0-1.16,1.26-1.73,3.78-1.73Z"/>
          <polygon class="cls-1" points="202.34 150.46 198.23 159.46 198.11 159.46 197.49 150.46 190.19 150.46 192.94 166.72 200.49 166.72 210.02 150.46 202.34 150.46"/>
          <path class="cls-1" d="M144.29,163.82c.27-1.51-.9-2.9-2.44-2.89l-68.02.3.04-.18c1.14-.81,2.22-2.24,3.23-4.28,1.01-2.03,1.52-4.29,1.52-6.76,0-4.19-1.44-7.52-4.32-10-2.88-2.47-6.75-3.71-11.6-3.71-5.67,0-10.33,1.85-13.98,5.56-3.65,3.71-5.47,8.28-5.47,13.71,0,4.19,1.44,7.5,4.32,9.93,1.44,1.21,3.12,2.12,5.05,2.73,3.09.97,6.4.94,9.54.16l3.29-.81,3.55,1.56h69.22l-.71,4.06c-.35,2.01,1.2,3.86,3.24,3.86l56.08.26,3.44-8.5-56.93.32.94-5.33ZM54.15,154.31c0-2.26.72-4.25,2.15-5.97,1.43-1.72,3.28-2.58,5.54-2.58,1.84,0,3.28.54,4.32,1.61,1.04,1.07,1.56,2.44,1.56,4.09,0,2.32-.7,4.35-2.08,6.08-.12.15-.25.28-.37.42l-3.9-1.35-3.86,3.1c-.71-.28-1.32-.69-1.83-1.24-1.02-1.12-1.54-2.5-1.54-4.16Z"/>
        </g>
        <polygon points="237.18 125.81 221.2 104.09 264.11 61.77 294.48 63.02 293.81 63.76 237.18 125.81"/>
        <polygon class="cls-4" points="222.97 103.77 237.76 123.29 292.45 63.87 264.47 62.71 222.97 103.77"/>
        <polygon points="32.92 125.55 81.09 90.57 69.83 125.3 32.92 125.55"/>
        <polygon class="cls-2" points="79.33 93 35.8 124.6 69.15 124.37 79.33 93"/>
        <path d="M312.67,62.06c-.06-.6-.55-1.06-1.15-1.07l-188.5-5.81h-.23s-9.48,10.38-9.48,10.38l.27.31c.08.09.14.16.25.16.09,0,.22-.05.43-.17l.02.02.05-.06c.37-.23.98-.66,2.04-1.39,1.61-1.14,3.98-2.8,4.52-3.17l171.37,4.35,18.92-3.42-65.07,69.57-.16.29v46.77c0,.25.16.47.4.55.06.02.12.03.17.03.17,0,.34-.08.45-.22l68.06-79.13c.77-.71,1.16-1.71,1.06-2.74-.56-5.98-2.9-29.93-3.42-35.23Z"/>
        <path class="cls-1" d="M172.21,41.72c2.16,5.6,2.57,11.82,1.99,17.75-.58,5.69-2.21,11.24-5.12,16.18-3.78,6.39-9.42,11.27-15.88,14.81-6.91,3.8-15.11,4.78-22.87,5.26-7.74.48-15.41-.21-23.15-.41-3.71-.09-7.5.07-11.11.56-4.76.64-9.52.85-14.31,1.12-3.89.21-7.99.73-11.94.34-1.69-1.49-3.37-2.98-5.06-4.48,4.31.81,8.85.67,13.15.53,4.49-.15,9.06-.52,13.45-1.1,3.83-.51,7.67-.58,11.54-.46,7.66.24,15.26.86,22.93.33,7.55-.52,15.49-1.52,22.2-5.23,6.32-3.49,11.87-8.25,15.64-14.48,2.89-4.77,4.56-10.15,5.22-15.66.76-6.37.33-13.08-2.09-19.07,1.81,1.33,3.61,2.66,5.42,3.98Z"/>
        <path class="cls-1" d="M187.07,70.49c-4.67-4.97-5.46-12.92-4.24-19.34.09-.46.22-.9.4-1.32.29.22.58.44.87.65,1.07,3.26,1.78,6.66,2.31,10.04.49,3.2.81,6.61.66,9.97Z"/>
        <path class="cls-3" d="M241.11,72.29c-5.19,5.24-10.38,10.47-15.57,15.71l-2.24,2.26c-2.11,2.12,1.18,5.41,3.28,3.28l15.57-15.71,2.24-2.26c2.11-2.12-1.18-5.41-3.28-3.28Z"/>
        <path d="M246.4,134.18l-6.87-10.7q-.14-.22-9.2-.17c-5.6.03-13.6.08-23.2.15-19.2.12-44.79.29-70.39.46q-102.47.68-102.54.72l-24.52,8.82-.05.02c-.25.13-.38.41-.32.69.07.28.31.47.59.47l235.97.48h0c.22,0,.43-.12.54-.32.11-.2.1-.44-.02-.63Z"/>
        <polygon class="cls-2" points="239.38 123.25 246.22 133.9 311.23 62.45 292.5 65.57 239.38 123.25"/>
        <path d="M246.33,35.01c-.94-2.55-3.21-3.97-5.83-4.37-1.87-.28-3.73-.12-5.59.18-8.6,1.62-17.15,3.63-25.56,6.02-6.04,1.71-12.1,3.6-17.79,6.29-1.92.9-4.12,1.98-5.85,3.45-2.61-1.17-4.94-2.18-7-3.05-2.63-1.94-5.27-3.88-7.9-5.81-.35-.26-.7-.51-1.04-.77-3.41-5.22-8.68-9.02-14.77-10.74-1.54-.43-3.12-.69-4.68-1.04-8.66-1.97-17.71-2.59-26.67-2.46.4-1.57.54-3.24.48-4.83-.09-2.37-.62-4.88-2.17-6.75-1.7-2.06-4.3-2.59-6.84-2.15-1.83.31-3.56,1.09-5.19,1.95-7.46,4.26-14.74,8.88-21.79,13.78-4.74,3.29-9.45,6.73-13.7,10.64-4.12,2.9-7.88,6.3-10.85,10.4-4.09,5.65-6.91,12.63-8.28,19.43-1.56,7.73-1.05,15.81,2.16,23.06.33.75.71,1.48,1.12,2.18.05.19.16.39.36.57,1.46,2.26,3.39,4.1,5.86,5.19,3.17,2.81,6.35,5.61,9.52,8.42.87.77,1.74,1.54,2.6,2.3.97,2,1.88,4.39,2.06,6.01.4,3.6,1.64,6.75,8.29,6.72,6.65-.03,9.43-2.6,11-6.7,1.59-4.11,1.85-10.25,1.61-11.72-.22-1.48-.68-2.32.38-2.25,1.07.07,10.54,1.21,17.87,5.6,7.33,4.41,18.62,10.05,38.62,11.74,20,1.7,30.21-.68,35.72-5.33,5.5-4.66,10.75-12.4,11.81-25.47.35-4.36,1.32-8.77,1.78-13.04,6.48-2.77,12.5-6.67,18.3-10.65,5.13-3.52,10.1-7.27,15.04-11.05,1.17-.9,2.55-1.73,3.54-2.83,1.48-1.65,2.5-3.76,3.17-5.87.7-2.22,1.03-4.8.2-7.03Z"/>
        <path class="cls-1" d="M121.16,22.59c-.02.06-.04.11-.06.16-2.16.07-4.33.18-6.46.32-9.4.64-18.98,2.01-27.75,5.46.23-.17.46-.32.7-.49,7.46-5.29,15.22-10.2,23.14-14.78.15-.08.29-.17.44-.25,2.19-1.16,5.39-2.63,7.83-1.28,1.71.94,2.39,3.06,2.63,4.89.25,1.97.1,4.07-.45,5.97Z"/>
        <path class="cls-1" d="M187.07,70.49c-.14,3.24-.71,6.43-2,9.37-2.4,5.34-5.2,10.63-9.27,14.89-4.17,4.38-9.48,7.21-15.33,8.65-6.56,1.61-13.53,1.41-20.2.62-4.99-.58-10.18-1.47-14.88-3.27-1.79-.69-3.77-1.71-5.76-2.3-3.34-.99-6.79-1.66-10.24-2.17-3.31-.48-6.75-1.02-10.06-.28-2.14.48-4.53,1.7-5.06,4.01-.3,1.3.27,2.58.36,3.88.07,1.09-.05,1.88-1.04,2.03-2.45.36-4.98.48-7.46.54-1.41.04-2.83.04-4.24-.08-.72-.06-1.93-.18-2.38-.46-.73-.45-1.38-1.22-2.01-1.78l-7.69-6.8c3.95.39,8.05-.13,11.94-.34,4.79-.27,9.55-.48,14.31-1.12,3.61-.48,7.4-.65,11.11-.56,7.73.2,15.4.89,23.15.41,7.76-.48,15.96-1.47,22.87-5.26,6.45-3.54,12.1-8.42,15.88-14.81,2.91-4.94,4.54-10.49,5.12-16.18.58-5.93.18-12.15-1.99-17.75,2.94,2.17,5.9,4.34,8.84,6.51.72.54,1.45,1.07,2.17,1.6-.18.42-.31.85-.4,1.32-1.22,6.43-.43,14.37,4.24,19.34Z"/>
        <path class="cls-1" d="M169.7,68.66c-2.75,7.65-8.24,13.93-15.1,18.19-1.61,1-3.3,2.04-5.03,2.8-3.23,1.42-7.39,2.23-11.04,2.8-6.79,1.05-13.73,1.25-20.59.96-5.79-.24-11.6-.8-17.39-.43-3.14.2-6.15.76-9.28,1.05-5.46.51-11,.74-16.48.94-3.82.14-8.2.18-11.32-2.38-1.75-1.43-2.92-3.42-3.83-5.45-1.55-3.45-2.43-7.25-2.69-11.02-.49-7.34,1.29-14.69,4.33-21.35,2.85-6.25,6.83-11.52,12.25-15.77,4.71-3.7,10.1-6.83,15.76-8.82,5.54-1.95,11.36-3.12,17.17-3.87,11.94-1.55,24.29-1.66,36.24-.05,2.34.32,4.68.72,6.98,1.24,2.8.64,5.57,1.12,8.2,2.32,3.28,1.5,6.19,3.67,8.47,6.47,3.25,3.98,4.93,9.08,5.44,14.14.62,6.11,0,12.44-2.09,18.23Z"/>
        <path d="M140.66,69.59c1.29.76,1.65,2.64,1.45,4.12-.13.96-.66,1.82-1.23,2.61-.43.59-.9,1.17-1.5,1.59-1.74,1.23-4.46.72-5.64-1.06-.67-1-.85-2.3-.58-3.47s.97-2.23,1.88-3.02c.54-.47,1.18-.86,1.89-1.02,0,0,1.66-.97,3.73.25Z"/>
        <path d="M131.64,66.26c-.34-.61-1.65-2.24-3.69-1.8-1.1.24-2.26.53-3.04,1.35-.49.51-.79,1.19-.95,1.88-.31,1.37-.04,2.89.82,4,.86,1.11,2.33,1.75,3.72,1.52,2.01-.34,3.38-2.39,3.58-4.41.08-.87-.01-1.78-.45-2.54Z"/>
        <path d="M128.18,75.18c1.78.89,3.22,2.64,3.03,4.63-.06.63-.25,1.24-.45,1.84-.19.55-.4,1.13-.84,1.51-.3.26-.68.4-1.06.52-1.41.48-3.02.81-4.31.07-1-.57-1.6-1.72-1.7-2.87s.22-2.31.72-3.35c.43-.92,1.03-1.81,1.94-2.27,0,0,1.61-.63,2.68-.09Z"/>
        <path d="M85.86,69.07c.09.97.03,1.94-.18,2.88-.17.74-.39,1.51-.9,2.08-.36.39-.83.65-1.3.88-.62.3-1.29.57-1.99.55-.82-.02-1.6-.44-2.14-1.05s-.86-1.4-.99-2.21c-.11-.63-.1-1.29.06-1.91.5-1.88,2.39-3.05,4.25-3.61.28-.09.58-.16.87-.1,0,0,2.09-.07,2.32,2.49Z"/>
        <path d="M85.72,80.9c.03.95-.27,2.47-.47,3.37-.16.73-.68,1.48-1.12,2.09s-1.38.81-2.12.88c-.8.08-1.58-.32-2.2-.83-.45-.36-.85-.81-1.03-1.35-.27-.83,0-1.73.3-2.54.45-1.24,1.02-2.54,2.13-3.25.35-.22.74-.37,1.13-.51.36-.13.75-.26,1.13-.2,0,0,2.18-.12,2.25,2.34Z"/>
        <path d="M112.88,62.97c-1.05-1.72-2.64-4.7-1.04-6.27,4.23-4.07,8.75-7.4,14.47-9.51,3.37-1.26,6.87-1.35,10.35-1.56,3.21-.17,6.46-.29,9.83-.14l.48,1.37c-4.01,3.22-8.4,5.43-13.02,7.42-1.48.61-2.23,1.09-3.47,1.87-3.63,2.39-7.26,5.72-10.49,8.86-.24.27-.58.45-1.06.49-.78.11-2.31-.37-3.21-.76-.48-.19-1.08-.47-1.75-.82l-1.1-.96h0Z"/>
        <path d="M94.66,65.25c-1.82,1.65-4,3.11-5.95,1.41-1.94-1.37-3.98-3.1-5.43-5.17-.88-1.11-2.08-1.98-3.28-3.01-1.96-1.58-4.03-3.18-6.13-4.76-2.14-1.52-4.15-3.3-6.63-4.26,0,0-.07-.48-.07-.48,1.43-.66,3.04-.67,4.48-.59,5.47.42,10.71,2.28,15.42,5.07.91.61,1.85,1.23,2.64,2.03.51.54,1.01,1.06,1.61,1.56,2.69,2.65,4.95,1.39,3.56,7.76,0,0-.24.42-.24.42h0Z"/>
        <path d="M122.42,86.73c6.71.6,14.94-.28,20.49-2.75,1.2-.68,4.36-2.47,5.54-3.13.59-.39,1.29-.59,2.54.22l.23.42c.02,1.5-.52,1.98-1.17,2.27l-1.86,1.01-3.73,2.01c-5.31,2.1-11.18,2.54-16.79,1.71-1.83-.27-3.62-.69-5.37-1.29l.11-.47h0Z"/>
        <path d="M68.87,86.17c2.04-.35,3.07.64,4.7,1.33,2.89,1.32,5.89,1.92,9.1,2.14,1.34.05,3.11.36,4.29-.21,0,0,.43-.23.43-.23.65,2.44-8.24,2.62-9.85,2.29-1.74-.24-3.46-.68-5.09-1.34-1.71-.78-3.54-1.36-3.88-3.6,0,0,.31-.37.31-.37h0Z"/>
        <path d="M74.98,75.56c-.97.36-1.84,1.04-2.33,1.96s-.62,2.02-.36,3.02c.23.88.88,1.75,1.79,1.85.35.04.71-.05,1.04-.17,1.28-.48,2.31-1.59,2.67-2.91s.17-2.36-.69-3.43c0,0-.69-.86-2.14-.32Z"/>
        <path class="cls-1" d="M244.18,39.89c-.42,2.03-1.25,4.02-2.46,5.71-.31.43-.96,1.1-1.21,1.29-.51.39-1.03.77-1.55,1.16-9.81,7.5-19.74,15.21-30.81,20.77-4.92,2.47-10.88,5.05-16.25,2.32-6.15-3.13-7.63-11.1-7.02-17.36.07-.75.19-1.5.34-2.24.05-.26.1-.51.18-.76.02-.06.04-.12.06-.18,0,0,0-.01,0-.02,0-.01.01-.02.02-.05.36-.73.63-1.01,1.25-1.6,1.39-1.31,3.19-2.31,4.95-3.19,5.07-2.56,10.56-4.3,15.99-5.9,9-2.66,18.18-4.82,27.39-6.6.16-.03.33-.06.49-.09,2.44-.38,5.97-.68,7.79,1.42,1.22,1.41,1.2,3.55.84,5.32Z"/>
      </g>
    </g>
  </g>
</svg>